<svg id="visual" viewBox="0 0 960 540" width="960" height="540" xmlns="http://www.w3.org/2000/svg" xmlns:xlink="http://www.w3.org/1999/xlink" version="1.1"><rect x="0" y="0" width="960" height="540" fill="#001122"></rect><defs><linearGradient id="grad1_0" x1="43.8%" y1="0%" x2="100%" y2="100%"><stop offset="14.444444444444446%" stop-color="#001122" stop-opacity="1"></stop><stop offset="85.55555555555554%" stop-color="#001122" stop-opacity="1"></stop></linearGradient></defs><defs><linearGradient id="grad2_0" x1="0%" y1="0%" x2="56.3%" y2="100%"><stop offset="14.444444444444446%" stop-color="#001122" stop-opacity="1"></stop><stop offset="85.55555555555554%" stop-color="#001122" stop-opacity="1"></stop></linearGradient></defs><g transform="translate(960, 0)"><path d="M0 243C-35 243.9 -70 244.8 -93 224.5C-115.9 204.2 -126.8 162.6 -132.9 132.9C-139.1 103.3 -140.4 85.6 -158 65.4C-175.5 45.3 -209.3 22.6 -243 0L0 0Z" fill="#F7770F"></path></g><g transform="translate(0, 540)"><path d="M0 -243C34.1 -239.6 68.3 -236.2 90.3 -218C112.3 -199.8 122.2 -166.8 145.7 -145.7C169.1 -124.5 206 -115.3 224.5 -93C243 -70.7 243 -35.3 243 0L0 0Z" fill="#F7770F"></path></g></svg>