<svg id="visual" viewBox="0 0 900 600" width="900" height="600" xmlns="http://www.w3.org/2000/svg" xmlns:xlink="http://www.w3.org/1999/xlink" version="1.1"><rect x="0" y="0" width="900" height="600" fill="#f8f9fd"></rect><g transform="translate(876.0548408913095 15.06499264988426)"><path d="M129.5 -179.4C167.7 -150.5 198.5 -112.5 220.6 -66.4C242.8 -20.4 256.5 33.7 238.8 74.4C221.2 115.1 172.3 142.5 127.3 149.9C82.3 157.3 41.1 144.6 -8.8 156.8C-58.8 168.9 -117.6 205.8 -129.4 187.7C-141.3 169.5 -106.3 96.4 -119.1 42.2C-131.9 -11.9 -192.4 -47.1 -198.5 -75.6C-204.5 -104.1 -156 -126.1 -113.9 -153.7C-71.7 -181.4 -35.9 -214.7 4.9 -221.4C45.7 -228.2 91.3 -208.3 129.5 -179.4" fill="#F7770F"></path></g></svg>